<?xml version="1.0" encoding="utf-8"?>
<!-- Generator: Adobe Illustrator 16.0.0, SVG Export Plug-In . SVG Version: 6.00 Build 0)  -->
<!DOCTYPE svg PUBLIC "-//W3C//DTD SVG 1.1//EN" "http://www.w3.org/Graphics/SVG/1.1/DTD/svg11.dtd">
<svg version="1.1" id="Layer_1" xmlns="http://www.w3.org/2000/svg" xmlns:xlink="http://www.w3.org/1999/xlink" x="0px" y="0px"
	 width="50px" height="50px" viewBox="0 0 50 50" enable-background="new 0 0 50 50" xml:space="preserve">
<path fill="#1C4075" d="M1.326,25.29c0-23.607,23.607-23.856,23.607-23.856V25.29H1.326z"/>
<polygon fill="#FFFFFF" points="4.078,16.265 3.75,17.265 2.734,17.265 3.563,17.874 3.234,18.89 4.078,18.265 4.922,18.89 
	4.547,17.89 5.375,17.233 4.375,17.249 "/>
<polygon fill="#FFFFFF" points="4.211,13.236 5.055,13.861 4.68,12.861 "/>
<polygon fill="#FFFFFF" points="7.047,8.641 6.719,9.641 5.703,9.641 6.531,10.25 6.203,11.266 7.047,10.641 7.891,11.266 
	7.516,10.266 8.344,9.609 7.344,9.625 "/>
<polygon fill="#FFFFFF" points="10.016,6.125 9.688,7.125 8.672,7.125 9.5,7.734 9.172,8.75 10.016,8.125 10.859,8.75 10.484,7.75 
	11.313,7.094 10.313,7.109 "/>
<polygon fill="#FFFFFF" points="15.922,3.068 16.766,3.693 16.391,2.693 "/>
<polygon fill="#FFFFFF" points="21.914,1.433 21.609,2.068 20.594,2.068 21.422,2.678 21.094,3.693 21.938,3.068 22.781,3.693 
	22.406,2.693 23.234,2.037 22.234,2.053 "/>
<polygon fill="#FFFFFF" points="12.984,3.609 12.656,4.609 11.641,4.609 12.469,5.219 12.141,6.234 12.984,5.609 13.828,6.234 
	13.453,5.234 14.281,4.578 13.281,4.594 "/>
<polygon fill="#E84948" points="24.933,21.625 24.933,25.29 48.537,25.29 48.294,21.625 "/>
<polygon fill="#E84948" points="1.637,28.88 48.228,28.88 47.34,32.487 2.525,32.487 "/>
<polygon fill="#E84948" points="4.041,36.04 45.824,36.04 43.496,39.622 6.368,39.622 "/>
<polygon fill="#E84948" points="9.905,43.246 39.96,43.246 33.944,46.864 15.921,46.864 "/>
<polygon fill="#E84948" points="24.933,18.054 24.933,14.475 46.049,14.475 47.488,18.054 "/>
<polyline fill="#E84948" points="40.264,7.294 43.733,10.763 24.933,10.763 24.933,7.184 "/>
<path fill="#E84948" d="M24.933,1.433v2.176h9.913C34.846,3.609,31.366,1.707,24.933,1.433z"/>
<circle fill="none" stroke="#000000" stroke-miterlimit="10" cx="24.932" cy="25.04" r="23.607"/>
<path fill="#FFFFFF" stroke="#000000" stroke-miterlimit="10" d="M24.933,25.04"/>
<polygon fill="#FFFFFF" points="21.859,11.156 21.531,12.156 20.516,12.156 21.344,12.766 21.016,13.781 21.859,13.156 
	22.703,13.781 22.328,12.781 23.156,12.125 22.156,12.141 "/>
<polygon fill="#FFFFFF" points="21.859,6.125 21.531,7.125 20.516,7.125 21.344,7.734 21.016,8.75 21.859,8.125 22.703,8.75 
	22.328,7.75 23.156,7.094 22.156,7.109 "/>
<polygon fill="#FFFFFF" points="18.922,3.609 18.594,4.609 17.578,4.609 18.406,5.219 18.078,6.234 18.922,5.609 19.766,6.234 
	19.391,5.234 20.219,4.578 19.219,4.594 "/>
<polygon fill="#FFFFFF" points="18.922,8.641 18.594,9.641 17.578,9.641 18.406,10.25 18.078,11.266 18.922,10.641 19.766,11.266 
	19.391,10.266 20.219,9.609 19.219,9.625 "/>
<polygon fill="#FFFFFF" points="18.922,13.64 18.594,14.64 17.578,14.64 18.406,15.249 18.078,16.265 18.922,15.64 19.766,16.265 
	19.391,15.265 20.219,14.608 19.219,14.624 "/>
<polygon fill="#FFFFFF" points="18.922,18.765 18.594,19.765 17.578,19.765 18.406,20.374 18.078,21.39 18.922,20.765 19.766,21.39 
	19.391,20.39 20.219,19.733 19.219,19.749 "/>
<polygon fill="#FFFFFF" points="21.859,16.265 21.531,17.265 20.516,17.265 21.344,17.874 21.016,18.89 21.859,18.265 22.703,18.89 
	22.328,17.89 23.156,17.233 22.156,17.249 "/>
<polygon fill="#FFFFFF" points="21.859,21.233 21.531,22.233 20.516,22.233 21.344,22.843 21.016,23.858 21.859,23.233 
	22.703,23.858 22.328,22.858 23.156,22.202 22.156,22.218 "/>
<polygon fill="#FFFFFF" points="15.922,21.233 15.594,22.233 14.578,22.233 15.406,22.843 15.078,23.858 15.922,23.233 
	16.766,23.858 16.391,22.858 17.219,22.202 16.219,22.218 "/>
<polygon fill="#FFFFFF" points="15.922,16.265 15.594,17.265 14.578,17.265 15.406,17.874 15.078,18.89 15.922,18.265 16.766,18.89 
	16.391,17.89 17.219,17.233 16.219,17.249 "/>
<polygon fill="#FFFFFF" points="15.922,11.156 15.594,12.156 14.578,12.156 15.406,12.766 15.078,13.781 15.922,13.156 
	16.766,13.781 16.391,12.781 17.219,12.125 16.219,12.141 "/>
<polygon fill="#FFFFFF" points="15.922,6.125 15.594,7.125 14.578,7.125 15.406,7.734 15.078,8.75 15.922,8.125 16.766,8.75 
	16.391,7.75 17.219,7.094 16.219,7.109 "/>
<polygon fill="#FFFFFF" points="12.984,8.641 12.656,9.641 11.641,9.641 12.469,10.25 12.141,11.266 12.984,10.641 13.828,11.266 
	13.453,10.266 14.281,9.609 13.281,9.625 "/>
<polygon fill="#FFFFFF" points="12.984,13.64 12.656,14.64 11.641,14.64 12.469,15.249 12.141,16.265 12.984,15.64 13.828,16.265 
	13.453,15.265 14.281,14.608 13.281,14.624 "/>
<polygon fill="#FFFFFF" points="12.984,18.765 12.656,19.765 11.641,19.765 12.469,20.374 12.141,21.39 12.984,20.765 13.828,21.39 
	13.453,20.39 14.281,19.733 13.281,19.749 "/>
<polygon fill="#FFFFFF" points="10.016,21.233 9.688,22.233 8.672,22.233 9.5,22.843 9.172,23.858 10.016,23.233 10.859,23.858 
	10.484,22.858 11.313,22.202 10.313,22.218 "/>
<polygon fill="#FFFFFF" points="10.016,16.265 9.688,17.265 8.672,17.265 9.5,17.874 9.172,18.89 10.016,18.265 10.859,18.89 
	10.484,17.89 11.313,17.233 10.313,17.249 "/>
<polygon fill="#FFFFFF" points="10.016,11.156 9.688,12.156 8.672,12.156 9.5,12.766 9.172,13.781 10.016,13.156 10.859,13.781 
	10.484,12.781 11.313,12.125 10.313,12.141 "/>
<polygon fill="#FFFFFF" points="7.047,13.64 6.719,14.64 5.703,14.64 6.531,15.249 6.203,16.265 7.047,15.64 7.891,16.265 
	7.516,15.265 8.344,14.608 7.344,14.624 "/>
<polygon fill="#FFFFFF" points="7.047,18.765 6.719,19.765 5.703,19.765 6.531,20.374 6.203,21.39 7.047,20.765 7.891,21.39 
	7.516,20.39 8.344,19.733 7.344,19.749 "/>
<polygon fill="#FFFFFF" points="4.078,21.233 3.75,22.233 2.734,22.233 3.563,22.843 3.234,23.858 4.078,23.233 4.922,23.858 
	4.547,22.858 5.375,22.202 4.375,22.218 "/>
</svg>
