<?xml version="1.0" encoding="utf-8"?>
<!-- Generator: Adobe Illustrator 16.0.0, SVG Export Plug-In . SVG Version: 6.00 Build 0)  -->
<!DOCTYPE svg PUBLIC "-//W3C//DTD SVG 1.1//EN" "http://www.w3.org/Graphics/SVG/1.1/DTD/svg11.dtd">
<svg version="1.1" id="Layer_1" xmlns="http://www.w3.org/2000/svg" xmlns:xlink="http://www.w3.org/1999/xlink" x="0px" y="0px"
	 width="75px" height="50px" viewBox="0 0 75 50" enable-background="new 0 0 75 50" xml:space="preserve">
<rect x="4.776" y="7.612" fill="none" width="30.84" height="33.521"/>
<text transform="matrix(1 0 0 1 4.7759 37.9541)" font-family="'ComicSansMS'" font-size="39">A</text>
<rect x="46.464" y="6.024" fill="none" width="26.105" height="31.028"/>
<text transform="matrix(1 0 0 1 46.4639 36.3662)" font-family="'ComicSansMS'" font-size="39">a</text>
<path d="M34.07,7.413c0,0,0.863-1.309-0.434-2.119S30.074,9.69,30.074,9.69s-0.142,1.182,3.854,2.083
	c4.341,0.979,1.269-1.697,1.269-1.697L34.07,9.38c0,0,8.052,0.089,9.733,2.893s3.62-1.44,2.125-2.313S39.479,6.229,34.07,7.413z"/>
<path d="M44.67,41.546c0,0-0.863,1.309,0.434,2.119c1.297,0.81,3.563-4.396,3.563-4.396s0.143-1.182-3.854-2.083
	c-4.341-0.979-1.269,1.696-1.269,1.696l1.127,0.697c0,0-8.052-0.09-9.733-2.894c-1.682-2.804-3.62,1.44-2.125,2.313
	S39.262,42.729,44.67,41.546z"/>
</svg>
